<?xml version="1.0" encoding="utf-8"?>
<!-- Generator: Adobe Illustrator 27.2.0, SVG Export Plug-In . SVG Version: 6.00 Build 0)  -->
<svg version="1.1" id="Layer_1" xmlns="http://www.w3.org/2000/svg" xmlns:xlink="http://www.w3.org/1999/xlink" x="0px" y="0px"
	 viewBox="0 0 595.3 841.9" style="enable-background:new 0 0 595.3 841.9;" xml:space="preserve">
<style type="text/css">
	.st0{fill:#FFFFFF;}
	.st1{fill:#4B9CD3;}
	.st2{fill:#D2E6F4;}
	.st3{fill:#77B4DE;}
</style>
<g>
	<g>
		<path class="st0" d="M195,270.9c68.1,0,136.3,0,204.5,0c0,100.1,0,200.3,0,300.5c-68.1,0-136.3,0-204.5,0
			C195,471.2,195,371.1,195,270.9z M302.3,352.4c1.2,0.7,2.4,1.1,3.8,0.9c3.7-0.6,7.4,0.3,11.1,0.6c5.1,0.5,10.3,1.4,15.4,2.3
			c1.2,0.2,2.5-0.5,3.3,0c3.8,2.4,8.2,2.3,12.3,3.6c6,1.9,11.7,4.3,17.2,7.3c0.5,0.3,1.1,0.6,1.2,1c0.5,1.9,1.8,1.2,2.9,1.3
			c0.1-0.3,0.2-0.5,0.2-0.6c-1.8-6.3-5.4-11.7-9.1-16.8c-3.7-5-7.9-9.7-13-13.5c-5.3-4-10.6-7.9-16.8-10.5
			c-8.8-3.8-18.1-5.9-27.6-6.9c-9.4-1-18.6,0.2-27.9,1.7c-5.1,0.8-9.9,2.5-14.7,4.5c-4.7,2-9.1,4.4-13.2,7.3
			c-2.4,1.8-4.9,3.7-6.6,6.3c1.5,0.6,2.5-0.1,3.5-0.5c6.7-2.8,13.7-4,20.9-4c4.8,0,9.7-0.1,14.5,1.2c5.1,1.4,10.2,2.7,14.6,5.7
			c1.4,1,2.8,2,3.6,3.6c-1,0.5-1.9,0.3-2.7,0.3c-7.4-0.3-14.8,0.3-22.1,1.1c-5.6,0.6-11.2,1.5-16.8,2.4c-4.2,0.6-8.6,1.3-12.5,2.6
			c-5.2,1.9-10.5,3.7-15.5,6.1c-4.3,2.1-5.6,5.5-6.6,9.7c1,0.3,1.7,0.2,2.4-0.5c1.2-1.1,2.5-2.2,3.9-3.1c5.3-3.6,11.4-5.5,17.5-7.2
			c6.2-1.7,12.6-2.6,18.9-3.5c11.1-1.6,22.2-2.3,33.3-2.3c1.1,0,2.2,0,3.3-0.1C301.7,352.9,302.1,352.9,302.3,352.4z M304.2,521.1
			c1.3-0.5,2.6-0.4,4-0.5c2.7-0.1,5.4-0.2,8.1-0.4c9.3-0.6,18.5-1.5,27.6-3.5c6.6-1.4,13.3-2.7,19.5-5.4c3.9-1.6,7.7-3.3,11.1-5.9
			c1.6-1.1,3.3-2.6,2.9-4.6c-0.5-2.9-0.2-5.7-0.4-8.5c-0.1-1.5-0.4-2.6-2.3-3c-1.6-0.3-3.1-0.3-4.7-0.3c-5,0-5.1-0.1-4.3-5.1
			c0-0.1-0.2-0.2-0.3-0.4c-0.1,0-0.2-0.1-0.2-0.1c-3.1,1.5-5.5,4.5-9.5,3.8c-0.1,0-0.3,0.3-0.4,0.5c-0.6,0.9-1.5,1-2.4,1.4
			c-2.1,1-4.4,0.4-6.4,1c-5.4,1.7-10.8,3.5-16.6,2.7c-0.1,0-0.4,0-0.4,0c-1.2,2.6-4.1-0.7-5.4,1.6c-4.5,0.3-9,0.7-13.5,1
			c-1.6,0.1-3.1-0.8-4.8,0c-2.9,1.3-6,0-8.9,0.2c-3.1,0.2-6.2,0.4-9.3,0.3c-6.2-0.3-12.4-0.8-18.7-1.4c-4.2-0.4-8.4-1.1-12.6-1.8
			c-3.3-0.5-6.5-1.3-9.7-1.8c-3.9-0.6-7.6-2-11.4-3.2c-2.9-0.9-5.7-2.2-8.3-4.1c-0.5,2.4-0.4,4.6-0.4,6.7c0,1.6,0.6,2.6,2,3.5
			c3.1,2,6.4,3.4,9.8,4.6c8.9,3,18,5.1,27.4,6.3c7,0.9,13.9,1.8,21,1.9c4.7,0,9.5,0.4,14.2,0c3.3-0.2,6.6,0,10-0.4
			c2.8-0.3,5.7-1,8.6-0.3c-17.3,5.6-35,5.8-52.8,4c-17.7-1.8-34.9-5.4-50.3-15.9c0,1.8-0.2,3,0,4c0.7,2.7-0.2,5.8,2.8,7.7
			c2.6,1.6,4.9,3.7,7.9,4.8c1.2,0.5,2.8,0.4,3.6,1.1c2.6,2.5,6.1,2.4,9.2,3.3c7.8,2.3,15.9,3.4,24,4.4c6.4,0.8,12.9,1.5,19.4,1.5
			c6.6,0,13.2,0.1,19.9,0.1C303.4,521.4,303.6,521.8,304.2,521.1z M356.5,378.5c2.7-1,1.9-3.5,3-5.1c1.3-2.1,0.9-3.1-1.5-4.2
			c-4.2-2-8.5-3.8-13.1-4.5c-2.8-0.4-5.4-2-8.1-2.1c-4-0.2-8-1.1-11.9-1.7c-5.6-0.9-11.4-1-17-1.9c-2.6-0.4-5.6-0.2-8.4-0.2
			c-6.8,0-13.6,0-20.4,0.7c-2.9,0.3-6,0.4-9,0.6c-1.8,0.1-3.6,0.3-5.4,0.6c-4.9,1-9.8,1.2-14.7,2.6c-5.9,1.6-11.8,3-17.2,5.7
			c-1.2,0.6-2.3,1.4-1.6,2.9c0.6,1.5,1.2,3.3,3.4,2.4c0.6-0.8-0.4-1.4-0.1-1.9c2.1-1.7,3.8-2,4.6,0.7c2.5,0.2,4.4-1.2,6.5-1.7
			c1.1-0.3,2-1,1.7-2.4c-0.2-1,0.5-2.2,1.2-2c1.5,0.5,2.9-1,4.4,0c0.3,0.8,0.6,1.7,1,2.7c3.6-0.5,7.2-1,10.7-1.6
			c0.7-0.1,1.5-0.8,1.4-1.5c-0.7-3.3,1.5-2.7,3.3-2.8c1,0,2,0.1,3-0.3c1.1-0.3,2.2,0.5,2,1.6c-0.3,1.7,0.7,1.6,1.6,1.5
			c4.2-0.1,8.3-0.4,12.5-0.4c1.4,0,2.1-0.5,2-1.9c-0.1-1,0.5-1.4,1.5-1.4c2.6,0,5.2,0,7.9,0c0.2,1.6-0.3,3.4,2.2,3.3
			c5.3-0.3,10.6,0.3,15.8,1c8.9,1.3,17.3,3.9,24.7,9c1,0.7,2.1,1.4,2.2,2.8c-1.1,0.5-2.2-0.2-3,0.5c-0.4,2.3-0.3,3.9,2.7,3.6
			c1.2-0.1,2.1,1.1,1.2,1.7c-1.9,1.2-1.4,2.7-1.4,4.2c0,21.6,0,43.3,0,64.9c0,9-0.1,18-0.1,27.1c0,2.7,0.5,3.2,3.2,3.2
			c1.8,0,3.7,0,5.5,0c3.3,0,4.1-0.8,4.1-4.1c0-30.7,0-61.3,0-92c0-0.6,0.2-1.2,0-1.7c-0.9-2,0.1-3.2,1.9-3.9
			C358,381.1,359,379.3,356.5,378.5z M267.1,377.3c-0.2,1-0.8,1.5-1.4,1.7c-1.6,0.7-1.8,2-1.8,3.5c-0.1,15.9,0.1,31.8-0.2,47.7
			c-0.3,18-0.1,36.1-0.1,54.2c0,0.8,0,1.6,0.1,2.4c0.3,1.4,1,2.2,2.6,2.1c2.4-0.1,4.8,0,7.2,0.1c1.8,0.1,2.6-0.9,2.8-2.5
			c0.1-0.6,0-1.3,0-1.9c0-34.9,0-69.8,0-104.7c0-1.1-0.4-2.3,1.3-2.8c1-0.3,0.6-1.5,0.6-2.4c-0.1-0.9-0.7-1.2-1.5-1.2
			c-4.7,0-9.4,0-14.1,0c-1.5,0-1.6,1-1.6,2.1c0,1.2,0.5,1.8,1.7,1.8C264.2,377.3,265.6,377.3,267.1,377.3z M319.1,377.3
			c-0.5,0.6-0.7,1-1,1.1c-2.4,1.1-2.5,3-2.5,5.3c0,32.4,0,64.8,0,97.2c0,8.1,0.5,8.6,8.7,7.8c3.7-0.3,3.9-0.6,3.9-4.3
			c0-34.9,0-69.8,0-104.7c0-1.1-0.4-2.3,1.2-2.9c1.1-0.4,0.6-1.7,0.5-2.6c-0.2-1-1.1-1-1.9-1c-3,0-6.1,0-9.1,0
			c-1.9,0-3.8-0.3-5.6,0.3c0,1.2-0.3,2.3,0.3,3.6C315.3,377.3,317,377.3,319.1,377.3z M238.6,383.9c-4.4,1.2-3.4,4.6-3.4,7.5
			c0,29.6-0.1,59.3-0.1,88.9c0,1.2,0,2.4,0,3.5c2.8,1.3,5.5,0.8,8.2,0.8c3.4,0,4.4-1.1,4.4-4.5c0-31.3,0-62.6,0-93.9
			c0-0.8,0-2.2,0.2-2.3c2.6-0.4,1-2.8,2.1-4.1c-5.7-0.7-11.4-0.4-17-0.5C232.6,383.2,232.6,383.2,238.6,383.9z M293.5,450.6
			c0.4,1.9-1.1,2.2-1.9,2.6c-2.6,1.3-3.4,3.3-3.4,6.1c0.1,5,0.1,10.1,0,15.1c0,0.7,0.4,1.6-0.6,2.1c-1.7,0.9-2,2.6-1.5,4
			c0.6,1.7,2.2,2.4,4.3,2.2c4.7-0.4,9.5-0.3,14.2,0.1c1.1-2,1.4-5.8,0.3-6.1c-1.7-0.5-1.3-1.5-1.3-2.6c0-7.4,0-14.8-0.1-22.3
			c0-1.8,0.7-3.2,1.5-4.7c0.4-0.8,1.8-0.8,1.8-2c-0.2-0.4-0.5-0.4-0.8-0.4c-6.6-0.2-13.2,0.3-19.8-0.3c-0.7-0.1-1.5,0.3-1.2,1.3
			c0.5,1.7,4.5,4.5,6.4,4.6C292.2,450.7,292.8,450.6,293.5,450.6z"/>
		<path class="st1" d="M303.2,520.8c-6.6,0-13.2-0.1-19.9-0.1c-6.5,0-12.9-0.7-19.4-1.5c-8.1-1-16.2-2.1-24-4.4
			c-3-0.9-6.5-0.8-9.2-3.3c-0.8-0.7-2.3-0.6-3.6-1.1c-3-1.1-5.3-3.2-7.9-4.8c-3-1.9-2.1-5.1-2.8-7.7c-0.3-1,0-2.2,0-4
			c15.5,10.5,32.6,14.2,50.3,15.9c17.8,1.8,35.5,1.6,52.8-4c-2.9-0.7-5.8,0-8.6,0.3c-3.3,0.3-6.7,0.1-10,0.4c-4.7,0.3-9.5,0-14.2,0
			c-7-0.1-14-1-21-1.9c-9.4-1.2-18.5-3.2-27.4-6.3c-3.4-1.2-6.7-2.6-9.8-4.6c-1.4-0.9-2-1.9-2-3.5c0-2.2-0.1-4.3,0.4-6.7
			c2.6,1.9,5.3,3.2,8.3,4.1c3.8,1.2,7.5,2.6,11.4,3.2c3.3,0.5,6.5,1.4,9.7,1.8c4.2,0.6,8.4,1.3,12.6,1.8c6.2,0.6,12.4,1.1,18.7,1.4
			c3.1,0.2,6.2-0.1,9.3-0.3c3-0.2,6.1,1.1,8.9-0.2c1.7-0.8,3.2,0.1,4.8,0c4.5-0.3,9-0.6,13.5-1c1.3-2.3,4.2,1,5.4-1.6
			c0-0.1,0.2,0,0.4,0c5.8,0.8,11.2-1,16.6-2.7c2-0.6,4.3,0.1,6.4-1c0.8-0.4,1.8-0.5,2.4-1.4c0.1-0.2,0.3-0.5,0.4-0.5
			c4,0.8,6.4-2.3,9.5-3.8c0,0,0.1,0.1,0.2,0.1c0.1,0.1,0.3,0.3,0.3,0.4c-0.8,5.1-0.8,5.1,4.3,5.1c1.6,0,3.1,0,4.7,0.3
			c1.9,0.4,2.2,1.5,2.3,3c0.2,2.8-0.1,5.7,0.4,8.5c0.4,2-1.4,3.5-2.9,4.6c-3.4,2.5-7.2,4.2-11.1,5.9c-6.3,2.7-12.9,3.9-19.5,5.4
			c-9.1,2-18.3,2.9-27.6,3.5c-2.7,0.2-5.4,0.3-8.1,0.4c-1.3,0.1-2.7-0.1-4,0.5C304,520.6,303.6,520.6,303.2,520.8z"/>
		<path class="st1" d="M301.3,352.7c-1.1,0-2.2,0.1-3.3,0.1c-11.2,0-22.3,0.8-33.3,2.3c-6.4,0.9-12.7,1.7-18.9,3.5
			c-6.1,1.7-12.2,3.5-17.5,7.2c-1.4,0.9-2.6,2-3.9,3.1c-0.7,0.7-1.4,0.9-2.4,0.5c0.9-4.2,2.2-7.6,6.6-9.7c5-2.4,10.3-4.2,15.5-6.1
			c3.9-1.4,8.2-2,12.5-2.6c5.6-0.9,11.2-1.8,16.8-2.4c7.3-0.7,14.7-1.4,22.1-1.1c0.8,0,1.7,0.2,2.7-0.3c-0.8-1.7-2.2-2.7-3.6-3.6
			c-4.4-3-9.5-4.3-14.6-5.7c-4.8-1.4-9.7-1.2-14.5-1.2c-7.1,0-14.2,1.2-20.9,4c-1,0.4-2,1.1-3.5,0.5c1.8-2.7,4.2-4.6,6.6-6.3
			c4.1-2.9,8.5-5.3,13.2-7.3c4.8-2,9.6-3.6,14.7-4.5c9.2-1.5,18.5-2.7,27.9-1.7c9.5,1,18.8,3.1,27.6,6.9c6.1,2.6,11.5,6.5,16.8,10.5
			c5,3.8,9.3,8.5,13,13.5c3.8,5.1,7.4,10.5,9.1,16.8c0,0.1-0.1,0.3-0.2,0.6c-1.1-0.1-2.4,0.7-2.9-1.3c-0.1-0.4-0.8-0.8-1.2-1
			c-5.5-3.1-11.2-5.4-17.2-7.3c-4.1-1.3-8.5-1.2-12.3-3.6c-0.9-0.5-2.2,0.2-3.3,0c-5.1-0.9-10.2-1.8-15.4-2.3
			c-3.7-0.4-7.4-1.2-11.1-0.6c-1.4,0.2-2.7-0.2-3.8-0.9C301.9,352.3,301.4,351.8,301.3,352.7z"/>
		<path class="st1" d="M356.5,378.5c2.4,0.8,1.5,2.6,2.1,4c-1.8,0.7-2.7,1.9-1.9,3.9c0.2,0.5,0,1.1,0,1.7c0,30.7,0,61.3,0,92
			c0,3.3-0.7,4-4.1,4.1c-1.8,0-3.7,0-5.5,0c-2.7,0-3.2-0.5-3.2-3.2c0-9,0.1-18,0.1-27.1c0-21.6,0-43.3,0-64.9c0-1.5-0.5-3,1.4-4.2
			c1-0.6,0-1.8-1.2-1.7c-3,0.3-3.1-1.3-2.7-3.6c0.8-0.7,2,0,3-0.5c-0.2-1.4-1.3-2.1-2.2-2.8c-7.4-5.2-15.8-7.8-24.7-9
			c-5.3-0.7-10.5-1.3-15.8-1c-2.5,0.1-1.9-1.7-2.2-3.3c-2.7,0-5.3,0-7.9,0c-1,0-1.5,0.4-1.5,1.4c0.1,1.5-0.6,1.9-2,1.9
			c-4.2,0.1-8.3,0.3-12.5,0.4c-0.9,0-1.9,0.1-1.6-1.5c0.2-1.1-0.9-1.9-2-1.6c-1,0.3-2,0.2-3,0.3c-1.8,0.1-4.1-0.5-3.3,2.8
			c0.2,0.7-0.7,1.4-1.4,1.5c-3.5,0.6-7.1,1.1-10.7,1.6c-0.4-1-0.7-1.9-1-2.7c-1.4-1-2.8,0.5-4.4,0c-0.7-0.2-1.4,1-1.2,2
			c0.3,1.4-0.6,2.1-1.7,2.4c-2.1,0.5-4,1.8-6.5,1.7c-0.9-2.7-2.6-2.4-4.6-0.7c-0.2,0.5,0.8,1.1,0.1,1.9c-2.2,0.9-2.8-1-3.4-2.4
			c-0.7-1.6,0.4-2.3,1.6-2.9c5.5-2.8,11.3-4.1,17.2-5.7c4.9-1.3,9.8-1.5,14.7-2.6c1.8-0.4,3.6-0.5,5.4-0.6c3-0.2,6.1-0.3,9-0.6
			c6.8-0.8,13.6-0.7,20.4-0.7c2.8,0,5.8-0.2,8.4,0.2c5.7,0.9,11.4,1,17,1.9c3.9,0.6,7.8,1.6,11.9,1.7c2.8,0.1,5.3,1.7,8.1,2.1
			c4.6,0.7,8.9,2.5,13.1,4.5c2.3,1.1,2.8,2.1,1.5,4.2C358.4,375,359.2,377.4,356.5,378.5z"/>
		<path class="st1" d="M267.1,377.3c-1.5,0-2.9,0-4.3,0c-1.2,0-1.7-0.6-1.7-1.8c0-1.1,0.1-2.1,1.6-2.1c4.7,0,9.4,0,14.1,0
			c0.8,0,1.4,0.3,1.5,1.2c0.1,0.8,0.4,2.1-0.6,2.4c-1.7,0.5-1.3,1.7-1.3,2.8c0,34.9,0,69.8,0,104.7c0,0.6,0,1.3,0,1.9
			c-0.2,1.7-1,2.6-2.8,2.5c-2.4-0.1-4.8-0.2-7.2-0.1c-1.7,0.1-2.3-0.7-2.6-2.1c-0.2-0.8-0.1-1.6-0.1-2.4c0-18.1-0.2-36.1,0.1-54.2
			c0.2-15.9,0.1-31.8,0.2-47.7c0-1.6,0.2-2.8,1.8-3.5C266.3,378.7,266.8,378.3,267.1,377.3z"/>
		<path class="st1" d="M319.1,377.3c-2.1,0-3.8,0-5.5,0c-0.6-1.3-0.3-2.4-0.3-3.6c1.8-0.6,3.8-0.3,5.6-0.3c3-0.1,6.1,0,9.1,0
			c0.8,0,1.7,0,1.9,1c0.1,0.9,0.6,2.2-0.5,2.6c-1.7,0.6-1.2,1.8-1.2,2.9c0,34.9,0,69.8,0,104.7c0,3.7-0.3,4-3.9,4.3
			c-8.2,0.7-8.7,0.3-8.7-7.8c0-32.4,0.1-64.8,0-97.2c0-2.3,0.1-4.2,2.5-5.3C318.4,378.3,318.6,377.9,319.1,377.3z"/>
		<path class="st1" d="M238.6,383.9c-6-0.7-6-0.7-5.6-4.7c5.6,0.1,11.3-0.2,17,0.5c-1.1,1.4,0.5,3.8-2.1,4.1c-0.2,0-0.2,1.5-0.2,2.3
			c0,31.3,0,62.6,0,93.9c0,3.4-1,4.5-4.4,4.5c-2.7,0-5.4,0.6-8.2-0.8c0-1.1,0-2.3,0-3.5c0-29.6,0-59.3,0.1-88.9
			C235.2,388.6,234.2,385.2,238.6,383.9z"/>
		<path class="st1" d="M293.5,450.6c-0.7,0-1.3,0-2,0c-1.9-0.1-5.9-3-6.4-4.6c-0.3-1,0.5-1.4,1.2-1.3c6.6,0.6,13.2,0,19.8,0.3
			c0.3,0,0.7,0,0.8,0.4c0,1.2-1.4,1.1-1.8,2c-0.7,1.5-1.5,2.9-1.5,4.7c0.1,7.4,0,14.8,0.1,22.3c0,1-0.4,2.1,1.3,2.6
			c1.1,0.3,0.8,4.1-0.3,6.1c-4.7-0.5-9.5-0.5-14.2-0.1c-2.1,0.2-3.6-0.5-4.3-2.2c-0.5-1.4-0.2-3.1,1.5-4c1-0.5,0.6-1.4,0.6-2.1
			c0-5,0.1-10.1,0-15.1c-0.1-2.8,0.7-4.8,3.4-6.1C292.4,452.9,294,452.6,293.5,450.6z"/>
		<path class="st2" d="M303.2,520.8c0.4-0.1,0.8-0.2,1,0.3C303.6,521.8,303.4,521.4,303.2,520.8z"/>
		<path class="st3" d="M301.3,352.7c0.1-0.9,0.6-0.5,1-0.3C302.1,352.9,301.7,352.9,301.3,352.7z"/>
	</g>
</g>
</svg>
